PathFileType	4	(X/Y/Z)	C:/Users/opensim2020/Desktop/walking_exp_matlab/subject02_walking15_straight_04.trc																																																																																																																												
DataRate	CameraRate	NumFrames	NumMarkers	Units	OrigDataRate	OrigDataStartFrame	OrigNumFrames																																																																																																																								
100	100	7	42	mm	100	1679	152																																																																																																																								
Frame#	Time	LFHD			RFHD			LBHD			RBHD			C7			T10			CLAV			STRN			RBAK			LSHO			LUPA			LELB			LFRM			LWRA			LWRB			LFIN			RSHO			RUPA			RELB			RFRM			RWRA			RWRB			RFIN			LASI			RASI			LPSI			RPSI			LTHI			LKNE			LTIB			LANK			LHEE			LTOE			RTHI			RKNE			RTIB			RANK			RHEE			RTOE			*39			*40			*41		
		X1	Y1	Z1	X2	Y2	Z2	X3	Y3	Z3	X4	Y4	Z4	X5	Y5	Z5	X6	Y6	Z6	X7	Y7	Z7	X8	Y8	Z8	X9	Y9	Z9	X10	Y10	Z10	X11	Y11	Z11	X12	Y12	Z12	X13	Y13	Z13	X14	Y14	Z14	X15	Y15	Z15	X16	Y16	Z16	X17	Y17	Z17	X18	Y18	Z18	X19	Y19	Z19	X20	Y20	Z20	X21	Y21	Z21	X22	Y22	Z22	X23	Y23	Z23	X24	Y24	Z24	X25	Y25	Z25	X26	Y26	Z26	X27	Y27	Z27	X28	Y28	Z28	X29	Y29	Z29	X30	Y30	Z30	X31	Y31	Z31	X32	Y32	Z32	X33	Y33	Z33	X34	Y34	Z34	X35	Y35	Z35	X36	Y36	Z36	X37	Y37	Z37	X38	Y38	Z38	X39	Y39	Z39	X40	Y40	Z40	X41	Y41	Z41	X42	Y42	Z42
																																																																																																																															
1	0	-1123.30627	1721.66675	940.2995	-1123.66687	1711.6731	1085.78076	-1246.61523	1634.88977	935.83862	-1258.73511	1622.07312	1078.73022	-1294.67407	1502.18445	1009.18597	-1358.0105	1234.19885	1021.66058	-1153.42969	1433.91199	1008.17542	-1108.33691	1260.34033	1032.46851	-1360.05688	1338.44653	1081.18127	-1213.49878	1468.02283	834.53845	-1251.51404	1276.6189	742.22412	-1273.91821	1144.09705	713.88043	-1292.64246	1018.07245	680.43732	-1264.5741	881.62817	688.14532	-1310.271	898.07996	659.09265	-1302.02136	836.14343	640.48199	-1227.25891	1484.2345	1194.62354	-1233.29846	1318.21936	1316.03735	-1188.17664	1186.32471	1373.22302	-1109.76184	1098.29187	1407.10315	-1007.93005	1011.77753	1404.45874	-1047.34497	987.90869	1437.12195	-983.37366	960.98053	1451.76025	-1132.48499	955.39795	921.52698	-1177.77917	949.95081	1177.65027	-1349.68799	1013.41693	967.89331	-1372.81812	1021.56903	1078.19604	-1101.34033	662.39679	875.78326	-1036.34326	487.14246	938.57666	-1039.06702	294.43213	960.13922	-971.57361	85.47401	1015.83252	-994.6593	55.63305	1074.72144	-819.05481	90.19509	998.45178	-1354.74231	673.08411	1224.71021	-1422.59827	473.32047	1181.88831	-1517.93921	310.95474	1183.04077	-1579.01208	123.56377	1152.00513	-1613.69165	73.35366	1093.48621	-1446.17761	44.06362	1200.62341	-1232.08875	1781.8396	1026.46655	NaN	NaN	NaN	NaN	NaN	NaN
2	0.01	-1109.93054	1720.20703	942.5979	-1110.34729	1710.05957	1087.97839	-1232.65686	1632.73462	938.46814	-1245.12915	1620.10986	1080.94763	-1280.69653	1500.37427	1010.98798	-1344.2052	1232.56982	1023.64264	-1139.49512	1432.03186	1010.23853	-1094.49585	1258.56177	1034.76257	-1346.31104	1336.75122	1082.85852	-1199.09277	1465.95251	836.48297	-1238.26746	1274.84045	744.17377	-1262.33679	1143.29602	715.71887	-1284.60645	1018.88312	680.54596	-1261.01135	881.51501	685.05615	-1306.18567	900.09021	656.39386	-1300.71875	837.83289	636.47607	-1213.46863	1482.23474	1196.66907	-1219.99255	1316.32043	1317.8584	-1173.99768	1185.24939	1376.33557	-1093.18506	1099.09192	1409.95142	-988.92584	1015.70233	1406.82153	-1027.65247	990.41565	1439.19519	-962.90747	965.35034	1453.92297	-1118.40149	953.75507	923.74158	-1163.64587	948.30096	1180.57642	-1335.92358	1011.33502	970.57703	-1359.17139	1019.49146	1080.19519	-1089.3252	660.05365	876.95245	-1021.90491	485.0184	940.74744	-1020.7583	292.76901	961.94806	-950.13696	84.72648	1017.84479	-972.99768	54.13152	1076.62549	-797.61414	91.94395	1001.52222	-1343.94629	672.93597	1227.56641	-1413.53345	473.84274	1184.47498	-1512.00623	313.26807	1184.75989	-1577.0293	127.32859	1153.24951	-1612.53552	78.45074	1094.39185	-1445.97473	44.22345	1200.93835	-1218.87634	1779.99097	1028.64771	-2846.1189	1034.2063	3356.80591	NaN	NaN	NaN
3	0.02	-1096.42212	1719.06226	944.70239	-1096.90625	1708.60388	1090.14697	-1218.95239	1631.12451	940.35388	-1231.4895	1618.31152	1082.86743	-1266.66797	1498.85242	1012.47473	-1329.84229	1230.96399	1025.47571	-1125.46411	1430.45642	1012.08978	-1080.46741	1257.01794	1036.79114	-1332.401	1335.23645	1084.24426	-1184.60107	1464.31836	837.99042	-1224.2959	1273.12939	745.85785	-1250.42151	1142.42041	717.55359	-1275.83899	1019.94556	680.54962	-1256.65356	881.6275	681.89258	-1301.28259	902.36456	654.19733	-1298.92932	840.29541	633.41309	-1199.672	1480.40173	1198.44006	-1206.93359	1314.56189	1319.55615	-1160.42957	1184.14355	1379.0376	-1077.30225	1099.90381	1412.3396	-970.72345	1019.60883	1408.7572	-1008.73248	992.99243	1440.92334	-943.42401	969.83826	1455.66455	-1103.8457	952.57562	926.10126	-1149.78076	947.03308	1183.77771	-1321.44812	1009.37946	972.73938	-1344.88538	1017.64691	1082.01465	-1076.51404	658.55627	878.23346	-1007.99469	483.19058	942.95886	-1005.22583	291.13083	964.36902	-932.31439	83.29526	1019.76691	-954.91132	52.31818	1078.39246	-779.88312	91.9374	1003.65771	-1332.48755	673.10962	1230.29395	-1403.56812	474.5322	1187.38525	-1505.4729	315.98416	1186.81738	-1574.70264	131.63516	1154.95117	-1611.07971	84.32902	1095.75427	-1445.6106	43.93706	1201.45251	-1205.50623	1778.29578	1030.75879	-2846.08521	1034.2301	3356.93457	NaN	NaN	NaN
4	0.03	-1082.83948	1718.07019	946.61469	-1083.43286	1707.34302	1092.11438	-1205.10913	1629.89771	942.06128	-1217.79871	1616.71814	1084.5321	-1252.5647	1497.57178	1013.61713	-1315.68835	1229.60559	1027.08838	-1111.37427	1429.15161	1013.61096	-1066.28857	1255.78772	1038.49109	-1318.4115	1333.8446	1085.44788	-1169.79333	1462.85168	839.23431	-1210.33545	1271.67773	747.66608	-1237.66248	1141.74097	719.74884	-1266.45618	1021.10785	680.89526	-1251.54675	882.1004	679.51245	-1295.60913	904.95459	652.58063	-1296.11414	843.09631	630.70752	-1185.93799	1478.80627	1199.96167	-1194.33081	1312.95532	1320.93616	-1147.40405	1183.01489	1381.22327	-1062.10852	1100.67639	1414.28809	-953.47504	1023.4718	1410.3573	-990.6499	995.58704	1442.14917	-924.81134	974.55511	1457.40833	-1088.65674	951.91284	928.37811	-1134.86121	946.2373	1186.54419	-1306.84753	1008.01544	974.96576	-1329.97327	1016.01837	1083.79431	-1062.09021	657.72083	879.97791	-994.58838	481.37964	945.17572	-991.84619	289.12317	966.56635	-918.18518	81.38144	1021.55829	-940.41278	50.14054	1080.30676	-765.92981	89.94943	1004.86664	-1320.22522	673.5741	1232.86108	-1392.74341	475.38913	1190.5929	-1498.25537	319.11044	1189.26343	-1571.95166	136.55034	1157.07263	-1609.2489	90.96935	1097.5564	-1445.33167	44.2117	1202.16443	-1192.1366	1776.92102	1032.81262	-2846.06177	1034.28931	3356.89282	NaN	NaN	NaN
5	0.04	-1069.05493	1717.30725	948.52417	-1069.94934	1706.25281	1093.86145	-1191.29333	1629.03381	943.43866	-1204.12903	1615.43201	1085.92957	-1238.54395	1496.51501	1014.53345	-1300.91223	1228.18225	1028.52112	-1097.14893	1427.9043	1015.01147	-1051.78711	1254.92725	1039.83154	-1304.27002	1332.56726	1086.36694	-1154.91345	1461.70349	840.27808	-1195.90186	1270.4353	749.21606	-1224.91528	1141.22363	721.67773	-1256.72437	1022.40576	681.52197	-1245.55103	882.86212	677.69623	-1289.10193	907.64526	651.43378	-1292.13696	846.21771	628.69867	-1172.32544	1477.56311	1201.32373	-1182.03894	1311.45166	1321.72473	-1134.88391	1181.97864	1382.92529	-1047.68103	1101.45264	1415.76331	-937.16351	1027.11658	1411.53564	-973.57275	998.12122	1443.08838	-907.22614	978.69403	1457.95789	-1072.90735	951.5993	930.80884	-1119.27332	945.71716	1189.23169	-1291.53589	1006.84406	976.95477	-1314.37024	1014.58282	1085.43042	-1046.1106	657.36127	882.23688	-981.67841	479.29376	947.2641	-979.96136	286.79605	968.7547	-907.56549	78.81097	1023.27307	-929.58997	47.28574	1081.97791	-755.47913	86.23103	1005.72302	-1307.04919	674.08948	1235.44336	-1380.93286	476.31879	1194.1217	-1490.27686	322.47559	1191.91504	-1568.69641	141.99405	1159.46912	-1606.81421	98.29852	1099.59668	-1445.07935	44.17782	1202.79846	-1178.67358	1775.69104	1034.51294	-2845.3584	1034.3252	3360.46851	NaN	NaN	NaN
6	0.05	-1055.27051	1716.7688	950.1416	-1056.44678	1705.4187	1095.60803	-1177.41272	1628.45313	944.53839	-1190.44714	1614.34534	1087.04871	-1224.47351	1495.52087	1015.13654	-1285.45923	1226.64844	1029.72168	-1083.05127	1427.31323	1015.9516	-1036.99231	1254.51074	1040.95239	-1289.85242	1331.27698	1087.04663	-1139.95276	1460.80042	841.16101	-1181.5625	1269.60352	750.54962	-1212.15356	1140.84082	723.4411	-1246.31812	1023.74237	682.37695	-1238.849	883.90979	676.21063	-1281.73242	910.33966	650.92749	-1287.14819	849.49774	627.06384	-1158.80835	1476.55042	1202.24731	-1170.0415	1310.15039	1322.16064	-1122.79211	1181.0564	1384.26025	-1033.96814	1102.146	1416.79224	-921.7962	1030.47827	1412.35681	-957.72272	1000.23627	1443.68066	-890.70599	982.75525	1458.56311	-1056.59656	951.60925	933.13275	-1103.0188	945.599	1191.76038	-1274.78796	1005.44836	978.62671	-1298.01563	1013.27686	1086.98083	-1029.26013	657.41736	885.23474	-968.78619	477.02335	948.91901	-969.42957	284.28531	970.75232	-900.07428	75.59985	1024.83643	-922.35547	44.23035	1083.67432	-748.00464	81.05376	1006.36676	-1292.98096	674.65668	1237.96655	-1368.24158	477.35867	1197.94446	-1481.47949	326.09827	1194.89441	-1564.88733	147.97942	1162.1228	-1603.57593	106.37093	1101.83716	-1444.36304	44.10021	1203.7146	-1165.2113	1774.69983	1036.35815	-2846.09009	1034.31335	3356.93408	NaN	NaN	NaN
7	0.06	-1041.39868	1716.41113	951.66473	-1042.98035	1704.63574	1097.10645	-1163.33203	1627.76245	945.52521	-1176.81921	1613.47546	1087.96472	-1210.51465	1494.56299	1015.5119	-1270.34033	1225.29321	1030.64075	-1068.79468	1426.84656	1016.82416	-1021.89008	1254.34595	1041.86414	-1275.43188	1329.93823	1087.58923	-1125.01733	1460.12854	841.8407	-1166.51587	1268.68726	751.78876	-1198.78333	1140.89844	725.0777	-1235.5365	1025.11963	683.37598	-1231.32593	885.07562	675.25134	-1273.79419	913.15649	651.13861	-1281.22998	852.7793	626.15399	-1145.56738	1475.87439	1202.96619	-1158.3623	1309.05359	1322.19507	-1111.13171	1180.36536	1384.93958	-1020.85162	1102.97131	1417.6991	-907.36066	1033.59045	1412.85535	-942.53625	1002.44141	1444.11047	-875.14551	986.52173	1458.8468	-1039.56812	951.89258	935.25671	-1086.17627	945.7016	1194.15808	-1258.42078	1004.7467	980.52173	-1280.99573	1012.23022	1088.47498	-1011.43475	657.02264	888.49792	-955.87848	474.63821	950.21222	-960.45001	281.86896	972.25659	-894.99005	71.77863	1025.89209	-917.87134	41.21798	1084.41382	-742.89105	74.75628	1007.24884	-1278.125	675.22211	1240.5957	-1354.62549	478.28168	1202.02722	-1471.9386	329.93073	1197.7572	-1560.3938	154.40338	1164.96692	-1599.32593	114.92629	1103.97632	-1444.104	43.82285	1204.49255	-1151.61243	1774.06982	1037.65466	-2846.01782	1034.3562	3357.10962	NaN	NaN	NaN
